<?xml version="1.0" encoding="utf-8"?>
<!-- Uploaded to: SVG Repo, www.svgrepo.com, Generator: SVG Repo Mixer Tools -->
<svg width="800px" height="800px" viewBox="-15.52 0 266.88 266.88" xmlns="http://www.w3.org/2000/svg"><defs><style>.a{fill:#ffffff;}.b{fill:#95cbeb;}.c{fill:#211715;}</style></defs><path class="a" d="M189.238,264.4c-8-9-13.1-34.752-12.833-37.583,1.221-12.84,16.965-25.519,25.563-34.9,13.251-14.452,32.531-42.639,31.43-81.836-.609-21.66-8.835-43.544-19.177-58.751C187.615,12.212,157.606,5.475,139.11,3.18s-36.41.7-52.548,6.33c-33.814,11.8-49.337,35.748-51.987,41.075-5.769,11.6-8.839,20.191-9.713,35.262a113.529,113.529,0,0,0-.7,19.564c-.439,14.848-.991,35.447-14.572,42.806a13.84,13.84,0,0,0-6.3,6.336c-3.249,7.391,3.119,10.705,7.067,14.962a22.73,22.73,0,0,1,5.165,9.633,141.051,141.051,0,0,0,3.022,21.4,59.809,59.809,0,0,0,4.841,14.344c4.338,8.2,9.877,12.3,15.612,14.393,11.241,4.111,26.626,5.573,36.584,2.876a4.934,4.934,0,0,1,5.832,2.908c.146.373,6.39,16.609,6.029,29.335"/><path class="b" d="M158.547,172.911a55.812,55.812,0,0,1-4-5.536,9.1,9.1,0,0,1-.762-1.68,7.456,7.456,0,0,1-.331-1.839c0-5.357.028-8.463.028-12.237,5.233,0,19.527-.058,21.015-.058,1.144-1.2,8.551-9.605,11.488-13.219l2.94-3.619,2.457-2.277q7.817-7.24,15.081-15.05c0-8.494-.572-27.822-.572-34.913V77.628L203.4,74.163c-3.345-4.661-11.694-16.269-15.1-21.015l-2.13-2.971-4.818-2.519c-3.774-1.973-21.9-11.723-24.7-13.2l-4-2.105-4.833.5c-9.7,1-52.116,5.672-59.41,6.52l-3.81.443L80.74,43.6c-6.6,6.463-13.594,13.539-19.952,19.952l-3.843,3.876-.135,3.307c-.115,2.8-.429,12.352-.572,16.583l-.184,5.455,2.036,3.486L68.868,114.71a2.054,2.054,0,0,0,.568.705,2.825,2.825,0,0,0,1.161.241c6.469,1.1,10.1,1.7,17.172,2.317q3.135,5.466,6.267,10.932a4.264,4.264,0,0,0,.7.991,4.15,4.15,0,0,0,1.954.87c9.145,2.226,21.283,5.189,28.541,6.332,1.852,4.024,8.974,19.178,10.953,23.788.9,3.625,2.54,10.59,3.34,14.592"/><path class="a" d="M117.252,67.728c0,11.752.032,27.043.031,38.208,9.2-.085,27.326-.131,38.3-.173,0-11.1-.072-26.337-.068-38.137C154.154,67.626,126.11,67.656,117.252,67.728Z"/><path class="c" d="M125.2,76.615c0,6.377.017,14.269.018,20.377a.989.989,0,0,0,1,.992c5.318-.042,14.345-.067,20.424-.089a.99.99,0,0,0,.993-.993c0-6.072-.038-13.94-.039-20.338a.989.989,0,0,0-.994-.993c-3.523,0-15.207.019-20.416.051A.99.99,0,0,0,125.2,76.615Z"/><path class="c" d="M190.935,262.706a15.653,15.653,0,0,1-1.575-2.109,36.128,36.128,0,0,1-1.819-3.161,60.027,60.027,0,0,1-2.969-6.887,120.393,120.393,0,0,1-4.343-15.009c-.433-1.927-.828-3.864-1.144-5.814-.057-.355-.11-.711-.162-1.067-.085-.574.063.557,0,.013-.016-.141-.034-.281-.049-.422a9.1,9.1,0,0,1-.078-1.309,17.983,17.983,0,0,1,2.24-7.087,45.118,45.118,0,0,1,5.145-7.776c7.1-8.8,15.9-16.019,22.961-24.864a124.93,124.93,0,0,0,16.963-27.879,115.459,115.459,0,0,0,9.528-39.2,111.816,111.816,0,0,0-7.012-45.719A124.06,124.06,0,0,0,205.954,36.6a108.12,108.12,0,0,0-28.888-24.019C158.821,2.4,136.918-1.461,116.22.488c-26.567,2.5-52.774,13.377-71.47,32.721A72.187,72.187,0,0,0,32.814,48.775a95.008,95.008,0,0,0-6.653,15.573,83.359,83.359,0,0,0-3.574,19.59c-.283,3.86-.759,7.693-.893,11.566-.132,3.835.138,7.667.022,11.5a138.1,138.1,0,0,1-1.231,16.858c-.835,5.4-2.184,10.9-5.1,15.578a19.209,19.209,0,0,1-4.827,5.342c-2.484,1.826-5.259,3-7.3,5.417a11.228,11.228,0,0,0,.653,16.445c1.882,1.953,4.1,3.6,5.766,5.758a16.6,16.6,0,0,1,3.567,8.642A133.936,133.936,0,0,0,16.8,203.589c1.843,7.326,4.651,14.414,9.76,20.1,4.118,4.586,9.369,7.286,15.2,9.033A77.473,77.473,0,0,0,62.8,235.918a56.854,56.854,0,0,0,9.992-.714c1.265-.208,2.6-.733,3.865-.814a2.518,2.518,0,0,1,1.478.357,2.256,2.256,0,0,1,.608.5c.077.086.637,1.07.362.469a65.184,65.184,0,0,1,3.29,10.363A65.711,65.711,0,0,1,85.04,264.4c-.071,3.09,4.729,3.089,4.8,0a70.6,70.6,0,0,0-2.818-19.594,93.3,93.3,0,0,0-3.281-10.338,7.42,7.42,0,0,0-7.444-4.849c-1.492.134-2.949.64-4.426.9a41.071,41.071,0,0,1-4.629.507,70.418,70.418,0,0,1-20.2-1.861c-5.662-1.333-11.194-3.147-15.5-7.226-5.281-5.007-8.054-11.758-9.872-18.671a124.607,124.607,0,0,1-3.605-21.881,17.562,17.562,0,0,0-.735-4.488A27.142,27.142,0,0,0,15,171.743a31.107,31.107,0,0,0-5.888-6.75c-1.678-1.552-3.607-3.252-4.174-5.42-.661-2.527.91-5.353,2.789-7.127,2.066-1.951,4.8-3.021,6.969-4.871a24.741,24.741,0,0,0,5.154-6.26c5.828-9.853,6.276-22.208,6.631-33.343.113-3.515-.1-7.025-.041-10.543.069-3.888.46-7.716.818-11.582.332-3.582.549-7.14,1.173-10.69a71.072,71.072,0,0,1,2.133-8.835A72.146,72.146,0,0,1,40.841,45.188q.355-.486.717-.965l.379-.5c-.319.416.12-.152.152-.192.616-.78,1.241-1.553,1.882-2.313q2.007-2.379,4.173-4.617A95.247,95.247,0,0,1,59.669,26.431,108.434,108.434,0,0,1,95.561,9.2,112.106,112.106,0,0,1,140.5,5.758c-.561-.074.605.085.791.111.42.06.838.122,1.257.186q1.41.216,2.817.463,2.772.49,5.516,1.121a94.834,94.834,0,0,1,12.6,3.835A92.457,92.457,0,0,1,190.43,27.8a120.881,120.881,0,0,1,26.654,32.818,112.312,112.312,0,0,1,13.458,42.463A107.508,107.508,0,0,1,226.331,145a116.5,116.5,0,0,1-15.037,31.254,118.026,118.026,0,0,1-8.256,10.847c-3.537,4.134-7.433,7.918-11.261,11.777-4.628,4.664-9.225,9.489-12.823,15.015-2.523,3.874-5.291,9.069-4.926,13.861a70.572,70.572,0,0,0,2.022,10.993,113.12,113.12,0,0,0,4.581,14.891c1.734,4.418,3.754,8.86,6.91,12.461,2.04,2.328,5.423-1.078,3.394-3.394Z"/><path class="c" d="M114.852,67.728c0,12.736.032,25.472.031,38.208a2.433,2.433,0,0,0,2.4,2.4c12.768-.117,25.537-.125,38.3-.173a2.435,2.435,0,0,0,2.4-2.4c0-12.712-.071-25.424-.068-38.137a2.435,2.435,0,0,0-2.4-2.4q-15.086,0-30.172.061-4.049.013-8.1.041c-3.087.024-3.094,4.824,0,4.8,11.338-.091,22.677-.083,34.016-.1l4.252-.005-2.4-2.4c0,12.713.068,25.425.068,38.137l2.4-2.4c-12.768.048-25.537.056-38.3.173l2.4,2.4c0-12.736-.034-25.472-.031-38.208C119.653,64.639,114.853,64.634,114.852,67.728Z"/><path class="c" d="M54.41,70.732c-.224,5.526-.385,11.055-.572,16.583a2.4,2.4,0,0,0,4.8,0c.187-5.528.348-11.057.572-16.583a2.4,2.4,0,1,0-4.8,0Z"/><path class="c" d="M56.017,97.467c3.51,6.008,7,12.028,10.528,18.025a4.5,4.5,0,0,0,3.649,2.522c1.448.218,2.89.488,4.336.722,2.91.47,5.83.876,8.76,1.2a2.415,2.415,0,0,0,2.4-2.4,2.455,2.455,0,0,0-2.4-2.4q-3.158-.351-6.3-.841-1.633-.255-3.264-.531a18.461,18.461,0,0,1-3.656-.664l1.059.617a9.814,9.814,0,0,1-1.195-1.936l-1.253-2.146L65.8,104.7l-5.64-9.657c-1.557-2.666-5.707-.253-4.145,2.423Z"/><path class="c" d="M87.088,121.611c1.625,2.834,3.2,5.7,4.876,8.506a5.784,5.784,0,0,0,3.217,2.712c1.267.441,2.631.68,3.934,1,5.72,1.389,11.444,2.764,17.2,4,3.013.647,4.3-3.979,1.276-4.628-5.329-1.144-10.632-2.408-15.929-3.691l-3.733-.908a5.041,5.041,0,0,1-1.4-.363,3.391,3.391,0,0,1-.789-1.178l-4.51-7.868c-1.536-2.679-5.685-.264-4.145,2.423Z"/><path class="c" d="M123.53,139.106c2.112,4.56,4.245,9.11,6.354,13.672,1.05,2.271,2.1,4.544,3.126,6.826q.3.664.6,1.333c.079.178.157.356.236.535.048.111.2.588.151.394.216.88.611,2.657.9,3.865.818,3.451,1.622,6.908,2.322,10.385a2.424,2.424,0,0,0,2.952,1.677,2.448,2.448,0,0,0,1.676-2.953c-.626-3.113-1.339-6.208-2.065-9.3a40.116,40.116,0,0,0-2.152-7.315c-2.156-4.844-4.411-9.644-6.649-14.451q-1.65-3.546-3.3-7.092a2.419,2.419,0,0,0-3.283-.861,2.455,2.455,0,0,0-.861,3.284Z"/><path class="c" d="M153.479,154.019c5.67,0,11.339-.027,17.008-.046,1.814-.006,4.512.464,5.891-.915,1.653-1.651,3.14-3.509,4.677-5.267,2.237-2.557,4.477-5.118,6.624-7.752a2.471,2.471,0,0,0,0-3.394,2.418,2.418,0,0,0-3.394,0c-3.676,4.51-7.489,8.991-11.488,13.219l1.7-.7c-7,0-14.01.057-21.015.058-3.088,0-3.093,4.8,0,4.8Z"/><path class="c" d="M193.076,134.144q5.554-5.156,10.84-10.588,1.32-1.359,2.621-2.735c.938-.992,2.226-1.975,2.323-3.425.092-1.375-.014-2.8-.031-4.175-.088-7.077-.269-14.153-.408-21.229-.063-3.169-.131-6.339-.133-9.509,0-3.088-4.8-3.094-4.8,0,.008,11.64.566,23.274.572,34.913l.7-1.7q-7.265,7.8-15.081,15.05c-2.269,2.106,1.131,5.5,3.394,3.4Z"/><path class="c" d="M88.415,41.771c6.82-.792,13.646-1.532,20.471-2.286q14.258-1.575,28.518-3.123c3.473-.376,6.946-.753,10.421-1.111a2.469,2.469,0,0,0,2.4-2.4,2.417,2.417,0,0,0-2.4-2.4c-7.4.762-14.792,1.583-22.186,2.392Q111.617,34.378,97.6,35.936c-3.062.342-6.123.68-9.183,1.035a2.473,2.473,0,0,0-2.4,2.4,2.415,2.415,0,0,0,2.4,2.4Z"/><path class="c" d="M151.079,151.619c0,3.871-.027,7.742-.028,11.614,0,4.459,3.09,8.1,5.8,11.375a2.418,2.418,0,0,0,3.4,0,2.455,2.455,0,0,0,0-3.394,49.028,49.028,0,0,1-3.521-4.889,5.7,5.7,0,0,1-.8-1.912,4.826,4.826,0,0,1-.095-.53c.021.209.022.14.022-.027q0-.906,0-1.812c0-3.475.027-6.95.027-10.425,0-3.089-4.8-3.094-4.8,0Z"/><path class="c" d="M155.442,36.531c8.258,4.356,16.431,8.871,24.7,13.2,2.734,1.431,5.164-2.71,2.423-4.144-8.272-4.329-16.446-8.844-24.7-13.2-2.73-1.44-5.159,2.7-2.422,4.144Z"/><path class="c" d="M186.232,54.359q7.537,10.515,15.1,21.015a2.468,2.468,0,0,0,3.284.861,2.418,2.418,0,0,0,.861-3.283q-7.545-10.511-15.1-21.016a2.47,2.47,0,0,0-3.284-.861,2.42,2.42,0,0,0-.861,3.284Z"/><path class="c" d="M119.418,62.755c0,1.468.029,2.935.029,4.4a2.48,2.48,0,0,0,.7,1.7,2.4,2.4,0,0,0,3.394,0,2.489,2.489,0,0,0,.7-1.7c0-1.468-.029-2.935-.029-4.4a2.475,2.475,0,0,0-.7-1.7,2.4,2.4,0,0,0-3.394,0,2.492,2.492,0,0,0-.7,1.7Z"/><path class="c" d="M128.966,62.755c0,1.468.029,2.935.029,4.4a2.475,2.475,0,0,0,.7,1.7,2.4,2.4,0,0,0,3.394,0,2.494,2.494,0,0,0,.7-1.7c0-1.468-.029-2.935-.029-4.4a2.48,2.48,0,0,0-.7-1.7,2.4,2.4,0,0,0-3.394,0,2.487,2.487,0,0,0-.7,1.7Z"/><path class="c" d="M138.513,62.755c0,1.468.029,2.935.03,4.4a2.471,2.471,0,0,0,.7,1.7,2.4,2.4,0,0,0,3.394,0,2.494,2.494,0,0,0,.7-1.7c0-1.468-.029-2.935-.03-4.4a2.471,2.471,0,0,0-.7-1.7,2.4,2.4,0,0,0-3.394,0,2.492,2.492,0,0,0-.7,1.7Z"/><path class="c" d="M148.061,62.755c0,1.468.029,2.935.029,4.4a2.48,2.48,0,0,0,.7,1.7,2.4,2.4,0,0,0,3.394,0,2.489,2.489,0,0,0,.7-1.7c0-1.468-.029-2.935-.029-4.4a2.475,2.475,0,0,0-.7-1.7,2.4,2.4,0,0,0-3.394,0,2.492,2.492,0,0,0-.7,1.7Z"/><path class="c" d="M119.418,106.91c0,1.468.029,2.936.029,4.4a2.484,2.484,0,0,0,.7,1.7,2.4,2.4,0,0,0,3.394,0,2.491,2.491,0,0,0,.7-1.7c0-1.468-.029-2.936-.029-4.4a2.475,2.475,0,0,0-.7-1.7,2.4,2.4,0,0,0-3.394,0,2.494,2.494,0,0,0-.7,1.7Z"/><path class="c" d="M128.966,106.91c0,1.468.029,2.936.029,4.4a2.479,2.479,0,0,0,.7,1.7,2.4,2.4,0,0,0,3.394,0,2.5,2.5,0,0,0,.7-1.7c0-1.468-.029-2.936-.029-4.4a2.48,2.48,0,0,0-.7-1.7,2.4,2.4,0,0,0-3.394,0,2.489,2.489,0,0,0-.7,1.7Z"/><path class="c" d="M138.513,106.91c0,1.468.029,2.936.03,4.4a2.475,2.475,0,0,0,.7,1.7,2.4,2.4,0,0,0,3.394,0,2.5,2.5,0,0,0,.7-1.7c0-1.468-.029-2.936-.03-4.4a2.471,2.471,0,0,0-.7-1.7,2.4,2.4,0,0,0-3.394,0,2.494,2.494,0,0,0-.7,1.7Z"/><path class="c" d="M148.061,106.91c0,1.468.029,2.936.029,4.4a2.484,2.484,0,0,0,.7,1.7,2.4,2.4,0,0,0,3.394,0,2.491,2.491,0,0,0,.7-1.7c0-1.468-.029-2.936-.029-4.4a2.475,2.475,0,0,0-.7-1.7,2.4,2.4,0,0,0-3.394,0,2.494,2.494,0,0,0-.7,1.7Z"/><path class="c" d="M160.434,70.3c-1.468,0-2.936.029-4.4.029a2.48,2.48,0,0,0-1.7.7,2.4,2.4,0,0,0,0,3.394,2.489,2.489,0,0,0,1.7.7c1.468,0,2.936-.029,4.4-.029a2.479,2.479,0,0,0,1.7-.7,2.4,2.4,0,0,0,0-3.394,2.5,2.5,0,0,0-1.7-.7Z"/><path class="c" d="M160.434,79.846c-1.468,0-2.936.029-4.4.029a2.475,2.475,0,0,0-1.7.7,2.4,2.4,0,0,0,0,3.394,2.494,2.494,0,0,0,1.7.7c1.468,0,2.936-.029,4.4-.029a2.484,2.484,0,0,0,1.7-.7,2.4,2.4,0,0,0,0-3.394,2.491,2.491,0,0,0-1.7-.7Z"/><path class="c" d="M160.434,89.393c-1.468,0-2.936.029-4.4.03a2.471,2.471,0,0,0-1.7.7,2.4,2.4,0,0,0,0,3.394,2.494,2.494,0,0,0,1.7.7c1.468,0,2.936-.029,4.4-.03a2.475,2.475,0,0,0,1.7-.7,2.4,2.4,0,0,0,0-3.394,2.5,2.5,0,0,0-1.7-.7Z"/><path class="c" d="M160.434,98.941c-1.468,0-2.936.029-4.4.029a2.48,2.48,0,0,0-1.7.7,2.4,2.4,0,0,0,0,3.394,2.489,2.489,0,0,0,1.7.7c1.468,0,2.936-.029,4.4-.029a2.479,2.479,0,0,0,1.7-.7,2.4,2.4,0,0,0,0-3.394,2.5,2.5,0,0,0-1.7-.7Z"/><path class="c" d="M116.278,70.3c-1.468,0-2.935.029-4.4.029a2.48,2.48,0,0,0-1.7.7,2.4,2.4,0,0,0,0,3.394,2.487,2.487,0,0,0,1.7.7c1.468,0,2.935-.029,4.4-.029a2.475,2.475,0,0,0,1.7-.7,2.4,2.4,0,0,0,0-3.394,2.494,2.494,0,0,0-1.7-.7Z"/><path class="c" d="M116.278,79.846c-1.468,0-2.935.029-4.4.029a2.475,2.475,0,0,0-1.7.7,2.4,2.4,0,0,0,0,3.394,2.492,2.492,0,0,0,1.7.7c1.468,0,2.935-.029,4.4-.029a2.48,2.48,0,0,0,1.7-.7,2.4,2.4,0,0,0,0-3.394,2.489,2.489,0,0,0-1.7-.7Z"/><path class="c" d="M116.278,89.393c-1.468,0-2.935.029-4.4.03a2.471,2.471,0,0,0-1.7.7,2.4,2.4,0,0,0,0,3.394,2.492,2.492,0,0,0,1.7.7c1.468,0,2.935-.029,4.4-.03a2.471,2.471,0,0,0,1.7-.7,2.4,2.4,0,0,0,0-3.394,2.494,2.494,0,0,0-1.7-.7Z"/><path class="c" d="M116.278,98.941c-1.468,0-2.935.029-4.4.029a2.48,2.48,0,0,0-1.7.7,2.4,2.4,0,0,0,0,3.394,2.487,2.487,0,0,0,1.7.7c1.468,0,2.935-.029,4.4-.029a2.475,2.475,0,0,0,1.7-.7,2.4,2.4,0,0,0,0-3.394,2.494,2.494,0,0,0-1.7-.7Z"/><path class="c" d="M178.554,112.446h15.554a2.4,2.4,0,1,0,0-4.8H178.554a2.4,2.4,0,0,0,0,4.8Z"/><path class="c" d="M177.451,106.157a3.8,3.8,0,0,0-3.876,3.853,3.738,3.738,0,0,0,3.877,3.924,3.7,3.7,0,0,0,3.876-3.924A3.8,3.8,0,0,0,177.451,106.157Z"/><path class="c" d="M92.676,75.12V59.566a2.4,2.4,0,1,0-4.8,0V75.12a2.4,2.4,0,0,0,4.8,0Z"/><path class="c" d="M80.581,98.221V85.513a2.4,2.4,0,0,0-4.8,0V98.221a2.4,2.4,0,1,0,4.8,0Z"/><path class="c" d="M161.668,138.581V121.368a2.4,2.4,0,0,0-4.8,0v17.213a2.4,2.4,0,0,0,4.8,0Z"/><path class="c" d="M171.732,138.581V121.368a2.4,2.4,0,0,0-4.8,0v17.213a2.4,2.4,0,1,0,4.8,0Z"/><path class="c" d="M151.6,138.581V121.368a2.4,2.4,0,0,0-4.8,0v17.213a2.4,2.4,0,0,0,4.8,0Z"/><path class="c" d="M79.859,83.725l-6.448-6.449a2.4,2.4,0,0,0-3.395,3.4l6.449,6.448a2.4,2.4,0,1,0,3.394-3.394Z"/><path class="c" d="M176.221,77.178V64.47a2.4,2.4,0,0,0-4.8,0V77.178a2.4,2.4,0,0,0,4.8,0Z"/><path class="c" d="M175.537,66.075l7.272-7.272a2.4,2.4,0,1,0-3.394-3.394l-7.272,7.272a2.4,2.4,0,0,0,3.394,3.394Z"/><path class="c" d="M105.029,65.217l15-15a2.4,2.4,0,1,0-3.394-3.394l-15,15a2.4,2.4,0,1,0,3.394,3.394Z"/><path class="c" d="M102.742,117.369l6.228-6.228a2.4,2.4,0,0,0-3.394-3.394l-6.228,6.228a2.4,2.4,0,0,0,3.394,3.394Z"/><path class="c" d="M181.656,90.378l6.228-6.228a2.4,2.4,0,1,0-3.394-3.394l-6.228,6.228a2.4,2.4,0,0,0,3.394,3.394Z"/><path class="c" d="M62.485,65.246c6.622-6.679,13.232-13.371,19.952-19.952,2.211-2.165-1.185-5.558-3.394-3.394-6.721,6.58-13.33,13.273-19.953,19.952-2.177,2.2,1.216,5.592,3.395,3.394Z"/><path class="c" d="M74.352,98.867a3.659,3.659,0,0,0,3.709,3.732,3.6,3.6,0,0,0,3.778-3.732,3.561,3.561,0,0,0-3.778-3.732A3.656,3.656,0,0,0,74.352,98.867Z"/><path class="c" d="M86.532,58.038a3.659,3.659,0,0,0,3.709,3.732,3.6,3.6,0,0,0,3.779-3.732,3.562,3.562,0,0,0-3.779-3.732A3.656,3.656,0,0,0,86.532,58.038Z"/></svg>